<?xml version="1.0" standalone="no"?>
<!DOCTYPE svg PUBLIC "-//W3C//DTD SVG 20010904//EN"
 "http://www.w3.org/TR/2001/REC-SVG-20010904/DTD/svg10.dtd">
<svg version="1.0" xmlns="http://www.w3.org/2000/svg"
 width="200.000000pt" height="200.000000pt" viewBox="0 0 200.000000 200.000000"
 preserveAspectRatio="xMidYMid meet">

<g transform="translate(0.000000,200.000000) scale(0.100000,-0.100000)"
fill="#000000" stroke="none">
<path d="M1074 1505 c-22 -22 -25 -32 -19 -61 11 -61 -31 -84 -82 -44 -34 27
-55 25 -92 -6 -39 -33 -41 -74 -6 -116 41 -48 27 -78 -35 -78 -39 0 -80 -23
-80 -46 0 -12 26 -14 154 -14 l154 0 39 39 c49 50 96 60 158 36 98 -37 126
-159 55 -235 -19 -20 -30 -43 -30 -61 0 -16 -4 -29 -10 -29 -6 0 -10 -50 -10
-130 l0 -130 28 0 c48 0 66 22 72 87 4 50 8 58 26 61 12 2 37 -6 55 -17 46
-28 65 -26 100 8 36 36 37 64 3 108 -14 19 -24 43 -22 56 2 18 11 23 52 28 58
6 86 34 86 84 0 38 -37 75 -74 75 -54 0 -60 47 -11 84 29 23 35 33 35 65 0 26
-7 44 -23 59 -27 25 -44 27 -99 10 -33 -10 -41 -9 -55 4 -13 14 -13 22 -3 53
16 49 6 81 -31 100 -47 25 -80 16 -108 -28 -19 -29 -30 -37 -49 -35 -14 2 -28
10 -32 18 -34 74 -35 75 -78 78 -34 3 -47 -2 -68 -23z"/>
<path d="M1160 1155 c-10 -13 -10 -19 2 -33 9 -9 20 -30 25 -47 9 -27 14 -30
60 -33 45 -3 51 -1 56 19 8 29 -16 84 -41 98 -30 16 -88 13 -102 -4z"/>
<path d="M602 1088 c-5 -7 -18 -40 -28 -73 -10 -33 -20 -52 -22 -42 -2 11 -13
17 -33 17 -24 0 -29 -4 -29 -25 0 -21 5 -25 30 -25 21 0 28 -4 24 -14 -3 -8
-14 -16 -25 -19 -16 -4 -19 -14 -19 -61 0 -43 3 -56 15 -56 8 0 15 -7 15 -15
0 -8 -4 -15 -10 -15 -6 0 -10 -50 -10 -129 0 -138 1 -141 55 -141 45 0 55 10
55 56 l0 44 65 0 c37 0 65 -4 65 -10 0 -13 227 -13 235 0 3 6 33 10 66 10 l59
0 0 -38 c0 -21 5 -43 12 -50 16 -16 80 -16 96 0 19 19 16 237 -3 258 -14 15
-14 18 0 30 10 8 15 30 15 66 0 50 -2 56 -27 66 l-28 12 38 4 c33 3 38 6 35
25 -4 29 -64 38 -70 10 -3 -10 -12 8 -22 42 -10 33 -23 66 -28 73 -8 9 -73 12
-263 12 -190 0 -255 -3 -263 -12z m479 -90 c6 -24 13 -46 16 -50 2 -5 -104 -8
-236 -8 l-239 0 9 38 c6 20 12 43 14 50 3 9 55 12 214 12 l210 0 12 -42z
m-391 -123 c20 -25 8 -50 -25 -50 -21 0 -31 5 -33 18 -4 21 14 47 33 47 7 0
18 -7 25 -15z m400 0 c20 -25 8 -50 -25 -50 -21 0 -31 5 -33 18 -4 21 14 47
33 47 7 0 18 -7 25 -15z m-500 -25 c0 -15 -7 -20 -25 -20 -18 0 -25 5 -25 20
0 15 7 20 25 20 18 0 25 -5 25 -20z m600 0 c0 -15 -7 -20 -25 -20 -18 0 -25 5
-25 20 0 15 7 20 25 20 18 0 25 -5 25 -20z"/>
</g>
</svg>
